<?xml version="1.0" encoding="UTF-8"?>
<svg version="1.1" xmlns="http://www.w3.org/2000/svg" width="1024" height="1024">
<path d="M0 0 C337.92 0 675.84 0 1024 0 C1024 337.92 1024 675.84 1024 1024 C686.08 1024 348.16 1024 0 1024 C0 686.08 0 348.16 0 0 Z " fill="#FDFDFD" transform="translate(0,0)"/>
<path d="M0 0 C4.70214495 0.01786828 9.40419042 0.00074471 14.10633492 -0.01172423 C23.290626 -0.03059655 32.47460038 -0.01759328 41.65886775 0.00680165 C52.37242826 0.03418781 63.0859153 0.03075325 73.79950193 0.02653499 C92.9228047 0.02017067 112.04595795 0.04340374 131.16921639 0.08266664 C149.69367674 0.12068968 168.217962 0.13483422 186.74245858 0.12368226 C206.95744423 0.11154845 227.17235313 0.11195251 247.38733244 0.13465393 C249.54535269 0.1370683 251.70337295 0.13948028 253.86139321 0.14188981 C254.92295274 0.14309689 255.98451226 0.14430397 257.07824026 0.14554762 C264.53346822 0.15328297 271.98866746 0.15252771 279.44389749 0.14871812 C288.53501234 0.14446048 297.62597446 0.15502635 306.71704641 0.18394522 C311.34899474 0.19836506 315.98072141 0.20664599 320.6126883 0.19745851 C324.86270683 0.189234 329.11227007 0.19983626 333.36221996 0.22471066 C334.88947694 0.23050854 336.41677765 0.22978683 337.94402274 0.22142451 C362.55356623 0.0990371 385.04948651 9.02373869 402.7654078 26.25502992 C419.5338674 43.8952443 426.84582816 64.31699428 426.71648812 88.30610108 C426.72254451 89.92172194 426.73033011 91.53733705 426.73967326 93.15294224 C426.7600797 97.54995755 426.75590945 101.94664393 426.74731207 106.34368527 C426.74234931 111.10257482 426.76044085 115.86138803 426.77538705 120.62024903 C426.80080816 129.92746896 426.8044775 139.23457329 426.79978652 148.5418221 C426.79621134 156.11281602 426.79973834 163.68377504 426.80823541 171.2547648 C426.80942578 172.33489959 426.81061616 173.41503439 426.81184261 174.52790055 C426.81426628 176.72266692 426.81669455 178.91743328 426.81912737 181.11219964 C426.84085083 201.66793487 426.83656671 222.22360438 426.82435767 242.77934328 C426.81402441 261.55022065 426.83652161 280.32089028 426.87455411 299.09172656 C426.91337715 318.40196954 426.92981116 337.7121144 426.92230761 357.02239662 C426.91849321 367.84903597 426.92336402 378.67549861 426.95173669 389.50210595 C426.97565117 398.72025054 426.97827772 407.93810966 426.95415635 417.15625849 C426.94243861 421.8515688 426.94001112 426.54635814 426.96416116 431.2416327 C427.10108104 459.84491172 425.1167438 486.03834318 404.27566171 507.73256898 C402.92910664 509.08708075 401.56249573 510.42156497 400.1950953 511.75502992 C399.10261483 512.86104554 399.10261483 512.86104554 397.98806405 513.98940492 C387.78902217 523.75323722 375.54371307 528.88107785 362.1950953 532.75502992 C361.11099484 533.10050988 360.02689438 533.44598984 358.90994239 533.80193889 C355.19715724 534.7545009 352.10764412 535.00771111 348.28488564 535.01229882 C347.2918126 535.01755793 347.2918126 535.01755793 346.27867746 535.02292329 C344.06848077 535.03219961 341.85854976 535.02732382 339.64834237 535.02245545 C338.04431706 535.02619365 336.44029357 535.03079584 334.83627295 535.0361861 C330.43441288 535.04841118 326.03262884 535.04815619 321.63075566 535.04579735 C316.88070594 535.04538904 312.13068055 535.05642981 307.38064218 535.06591249 C298.07536538 535.08252206 288.77011392 535.08802206 279.46482354 535.08913724 C271.89789529 535.09008798 264.33097538 535.09419957 256.76404977 535.10053849 C235.29975143 535.11815278 213.83547309 535.12737737 192.37116748 535.12587754 C191.21413788 535.12579763 190.05710828 535.12571772 188.86501718 535.12563539 C187.70657058 535.12555362 186.54812399 535.12547186 185.35457295 535.12538762 C166.59279061 535.12457524 147.83108866 535.14370036 129.06932956 535.17191212 C109.79440828 535.20066615 90.51952616 535.21445094 71.24458289 535.21272457 C60.42752049 535.21206141 49.61054229 535.2175207 38.79349923 535.23908067 C29.5805638 535.25732586 20.36775072 535.2616126 11.154805 535.24806182 C6.45824443 535.2415483 1.76191835 535.24135621 -2.93461967 535.25876832 C-7.24305273 535.27457648 -11.55106689 535.27155708 -15.85949022 535.25420006 C-17.40933763 535.25114704 -18.95921692 535.25469771 -20.50902671 535.26592021 C-33.73384813 535.35525969 -46.17664111 533.3327075 -57.9924047 527.06752992 C-58.97720817 526.56141175 -58.97720817 526.56141175 -59.98190665 526.04506898 C-66.44267854 522.61501498 -72.13610128 518.37341188 -77.8049047 513.75502992 C-78.6299047 513.14530335 -79.4549047 512.53557679 -80.3049047 511.90737367 C-88.13674429 505.16464927 -93.81980301 495.48652877 -98.2424047 486.25502992 C-98.54767081 485.62894837 -98.85293693 485.00286683 -99.16745353 484.35781312 C-104.79563805 471.9583892 -106.39878459 459.73611559 -106.3195684 446.26642823 C-106.32490692 444.65763229 -106.33198005 443.04884135 -106.34061545 441.44005972 C-106.35909706 437.06197788 -106.35298831 432.68423764 -106.34246242 428.30614245 C-106.33542882 423.56774703 -106.3514998 418.82941889 -106.36445975 414.09104371 C-106.38603645 404.82459419 -106.38598902 395.55826778 -106.37783421 386.29180142 C-106.37151879 378.75511625 -106.37268536 371.21846682 -106.37910628 363.68178201 C-106.38000794 362.60662048 -106.38090959 361.53145896 -106.38183857 360.42371679 C-106.38368989 358.23909295 -106.38555245 356.05446913 -106.38742613 353.86984531 C-106.40398287 333.41049934 -106.39530384 312.95122244 -106.37844055 292.49188063 C-106.36374904 273.80373939 -106.37836809 255.11575902 -106.40721072 236.42763849 C-106.43665486 217.20554825 -106.44756215 197.98353211 -106.43802851 178.76142031 C-106.43700604 176.58418859 -106.43601142 174.40695686 -106.435045 172.22972512 C-106.43456861 171.15867975 -106.43409222 170.08763438 -106.4336014 168.98413309 C-106.4314437 161.46476059 -106.44120704 153.94545877 -106.45581603 146.42610192 C-106.47339546 137.25037643 -106.47314195 128.07485582 -106.45046438 118.89913817 C-106.43937241 114.22438845 -106.43604419 109.54999892 -106.45476508 104.87526536 C-106.47172985 100.58355385 -106.4650059 96.29251222 -106.44054829 92.00084285 C-106.43571646 90.46060712 -106.4390374 88.92031567 -106.45203573 87.38012721 C-106.63926446 63.43928188 -97.54317593 42.75124525 -81.3127172 25.20034242 C-76.84889908 20.8477721 -71.94950092 17.2588464 -66.8049047 13.75502992 C-65.45332267 12.81143617 -65.45332267 12.81143617 -64.07443595 11.84877992 C-44.34513076 -0.84030777 -22.5381996 -0.1175198 0 0 Z " fill="#F55E47" transform="translate(351.80490469932556,244.2449700832367)"/>
<path d="M0 0 C0.75168457 0.00054382 1.50336914 0.00108765 2.27783203 0.00164795 C29.26929175 0.09041696 56.40751739 5.24972477 82.125 13.375 C81.56954053 20.45256711 80.44924138 27.25578534 78.9375 34.1875 C78.49177245 36.27725527 78.04648107 38.3671036 77.6015625 40.45703125 C77.36469727 41.56256348 77.12783203 42.6680957 76.88378906 43.80712891 C75.63760274 49.66677079 74.4294322 55.5342271 73.21957397 61.40145874 C72.56816663 64.55955619 71.91480251 67.71724887 71.26171875 70.875 C70.88278825 72.70832832 70.50387204 74.5416596 70.125 76.375 C66.54203181 76.01670318 63.64078157 75.63511398 60.40625 74.00390625 C55.67247785 71.6539265 50.74292167 70.56319211 45.625 69.3125 C44.6246875 69.05662109 43.624375 68.80074219 42.59375 68.53710938 C30.13618206 65.44655202 17.8707556 64.01810693 5.05615234 64.05932617 C2.99393831 64.06250936 0.93313465 64.03881872 -1.12890625 64.01367188 C-13.10528472 63.95559657 -24.61219901 65.11093654 -33.875 73.375 C-37.57974135 77.29058029 -38.15878099 81.1368582 -38.375 86.4375 C-38.1697466 91.59449178 -37.48103376 94.49851371 -33.875 98.375 C-33.37355469 98.92414063 -32.87210938 99.47328125 -32.35546875 100.0390625 C-21.62368504 110.65394225 -4.9026416 114.71004256 8.90400696 119.90016174 C41.39294902 132.11484561 73.78241202 145.84123449 89.5 179.0625 C98.18966326 200.37003045 97.7707308 226.80859578 89.375 248.1875 C84.19727016 260.49324327 77.4619677 270.01202403 68.125 279.375 C67.34382812 280.179375 66.56265625 280.98375 65.7578125 281.8125 C41.19311782 305.63281 2.02572382 311.91974102 -30.72485352 311.58789062 C-34.10868197 311.53059634 -37.49163778 311.45468924 -40.875 311.375 C-41.70563965 311.36484863 -42.5362793 311.35469727 -43.39208984 311.34423828 C-53.76847265 311.21376093 -63.89708756 309.72829453 -74.125 308.0625 C-75.99067627 307.76146362 -75.99067627 307.76146362 -77.89404297 307.4543457 C-86.41687208 305.9965974 -94.61872164 303.93606092 -102.875 301.375 C-103.71168213 301.11678467 -104.54836426 300.85856934 -105.41040039 300.5925293 C-110.92286629 298.82210669 -116.23966266 296.64584961 -121.5625 294.375 C-122.37783203 294.03210938 -123.19316406 293.68921875 -124.03320312 293.3359375 C-128.39345858 291.48890932 -132.66565222 289.5510764 -136.875 287.375 C-136.16727928 279.06617493 -134.44394656 271.01171407 -132.6875 262.875 C-132.37556701 261.41544653 -132.0636367 259.95589249 -131.75170898 258.49633789 C-129.00995334 245.73676093 -126.01936918 233.04151773 -122.875 220.375 C-122.08480469 220.7875 -121.29460937 221.2 -120.48046875 221.625 C-105.21671381 229.44004253 -89.60182218 236.39149495 -72.875 240.375 C-71.43737305 240.71772949 -71.43737305 240.71772949 -69.97070312 241.06738281 C-56.80192805 244.09153594 -43.96345873 245.82882145 -30.4375 245.875 C-29.26026367 245.88120361 -28.08302734 245.88740723 -26.87011719 245.89379883 C-14.7005516 245.71615991 -3.52547844 242.96528706 6.9375 236.6875 C10.93085676 232.46595142 13.3052443 227.22172038 13.5625 221.375 C13.18945344 215.1326876 11.2646619 208.55080151 6.93359375 203.8984375 C-5.80423044 193.16895276 -22.30655549 187.86784607 -37.75 182.4375 C-57.48823066 175.49077355 -75.63924255 167.90479787 -91.875 154.375 C-92.61234375 153.79492188 -93.3496875 153.21484375 -94.109375 152.6171875 C-109.32683396 140.07590235 -117.63264125 120.68420037 -119.875 101.375 C-121.42702772 77.85375227 -114.82880022 55.03245702 -99.3125 37 C-83.92172107 20.425315 -64.46252297 10.32210503 -42.875 4.375 C-42.07835937 4.15070313 -41.28171875 3.92640625 -40.4609375 3.6953125 C-27.35560148 0.40632856 -13.44692895 -0.03728563 0 0 Z " fill="#FDFDFD" transform="translate(616.875,339.625)"/>
<path d="M0 0 C0.25582618 7.49873085 -0.5029023 14.56446893 -1.71484375 21.95703125 C-1.89004044 23.0630217 -2.06523712 24.16901215 -2.2457428 25.30851746 C-2.80245094 28.81104092 -3.36991745 32.31172416 -3.9375 35.8125 C-4.31513881 38.18153142 -4.69209837 40.55067123 -5.06835938 42.91992188 C-5.75893641 47.25040696 -6.45097101 51.58063342 -7.15209961 55.90942383 C-7.29199814 56.77416824 -7.43189667 57.63891266 -7.57603455 58.52986145 C-8.00521435 61.03038023 -8.49081149 63.51464903 -9 66 C-10.07765625 65.84015625 -11.1553125 65.6803125 -12.265625 65.515625 C-30.87906322 63.20736221 -49.40570676 63.63466764 -65 75 C-74.28987073 83.31838098 -79.10916964 94.6520626 -80.1758306 107.04245853 C-80.46850752 112.77892539 -80.4378533 118.52037307 -80.43237305 124.26269531 C-80.44140401 126.18562952 -80.45173448 128.10855799 -80.46325684 130.03147888 C-80.49069618 135.21863484 -80.50009352 140.40568118 -80.50611091 145.59290028 C-80.51552874 151.02614956 -80.54173479 156.45931806 -80.56611633 161.89251709 C-80.60969149 172.16627345 -80.63829357 182.44001404 -80.66143972 192.71383452 C-80.68853965 204.41647621 -80.73244815 216.11903625 -80.77772844 227.82161951 C-80.87044604 251.88104718 -80.93996725 275.94046704 -81 300 C-107.4 300 -133.8 300 -161 300 C-161.09061962 275.12003439 -161.1641668 250.24020434 -161.20724869 225.36011505 C-161.22779231 213.80544588 -161.25575433 202.25088724 -161.30175781 190.69628906 C-161.34187854 180.61436427 -161.36749223 170.5325196 -161.37635398 160.45051718 C-161.3815264 155.12208721 -161.3935082 149.79388627 -161.42292023 144.4655304 C-161.65149321 101.37201595 -161.65149321 101.37201595 -157 82 C-156.81496162 81.19937134 -156.62992325 80.39874268 -156.43927765 79.57385254 C-150.03958413 52.18851024 -131.9746531 30.00121164 -108.46386719 15.16210938 C-75.54101154 -4.74133636 -37.12726863 -8.20525054 0 0 Z " fill="#FDFCFC" transform="translate(495,346)"/>
<path d="M0 0 C1.58929372 -0.00131022 3.1785868 -0.00394061 4.76787645 -0.0077675 C9.10991052 -0.01444199 13.45172053 -0.0025219 17.79372609 0.01256669 C22.48546443 0.02556685 27.17719096 0.02113478 31.86894226 0.01885986 C39.98936118 0.01728964 48.10970758 0.02667258 56.23010826 0.04357338 C67.9707178 0.06799288 79.71129241 0.07577167 91.4519246 0.07953735 C110.50201195 0.08609721 129.55206068 0.10604573 148.60212708 0.13444519 C167.1034272 0.16199782 185.60471682 0.18322551 204.10603333 0.19596863 C205.24716267 0.1967568 206.38829202 0.19754497 207.56400105 0.19835702 C213.28892329 0.20227224 219.01384561 0.20606334 224.73876798 0.20979273 C272.20488507 0.24087413 319.67096024 0.29369724 367.13703918 0.36076355 C367.13703918 0.69076355 367.13703918 1.02076355 367.13703918 1.36076355 C366.34409264 1.3624998 365.55114609 1.36423605 364.73417085 1.36602491 C317.75408774 1.46901796 270.77401878 1.57712286 223.79396286 1.69188049 C218.15498514 1.70565033 212.51600731 1.71937738 206.87702942 1.733078 C205.19307695 1.73717046 205.19307695 1.73717046 203.47510523 1.74134559 C185.28950094 1.78543944 167.10389046 1.82606661 148.91827535 1.86541616 C130.26285736 1.90585929 111.60745085 1.95001966 92.95204979 1.9976421 C81.43756079 2.02691812 69.92307264 2.05328298 58.40856869 2.07594252 C50.51627169 2.09175142 42.62398873 2.11116591 34.73170733 2.13343196 C30.17601643 2.1461777 25.62033629 2.15731812 21.06463242 2.16418266 C16.89401048 2.17050202 12.72342573 2.18134806 8.55282427 2.19579685 C7.04396545 2.20022471 5.53510065 2.20299029 4.02623563 2.20392554 C1.97428279 2.20544076 -0.07756328 2.21302698 -2.12949467 2.22209835 C-3.26903538 2.22475639 -4.40857609 2.22741444 -5.58264834 2.23015302 C-10.77144116 2.43675254 -15.78645583 3.31942919 -20.86296082 4.36076355 C-22.8619321 4.7002115 -24.8617172 5.03497971 -26.86296082 5.36076355 C-26.86296082 4.70076355 -26.86296082 4.04076355 -26.86296082 3.36076355 C-17.91428559 0.2453402 -9.36109955 -0.05775847 0 0 Z " fill="#F3622D" transform="translate(332.8629608154297,244.6392364501953)"/>
<path d="M0 0 C1.4301756 0.00084815 2.8603525 0.00036747 4.29052734 -0.00132751 C8.13904388 -0.00218158 11.98727486 0.01534762 15.83572555 0.03639436 C19.87023038 0.05526038 23.90474313 0.05691937 27.93928528 0.06047058 C35.56403924 0.06976209 43.18866279 0.09433628 50.81335956 0.12451905 C59.50025075 0.15815366 68.18714846 0.17457176 76.87408864 0.18960536 C94.72969072 0.22088872 112.58517176 0.27359234 130.44067383 0.34057617 C130.44067383 0.67057617 130.44067383 1.00057617 130.44067383 1.34057617 C129.38353007 1.34692408 129.38353007 1.34692408 128.30502987 1.35340023 C111.14480319 1.45677196 93.984618 1.56541939 76.82446194 1.67991543 C68.52589231 1.73515837 60.22731838 1.7886255 51.92871094 1.83789062 C44.69439506 1.88084206 37.4601097 1.9271473 30.2258411 1.97745472 C26.39651118 2.00396759 22.56718697 2.02881803 18.73782158 2.04965019 C15.13045349 2.06932771 11.52314299 2.09350361 7.9158268 2.12106705 C5.96699607 2.13480503 4.01813389 2.14382948 2.0692749 2.1526947 C-5.4019526 2.21516139 -12.24623931 2.84045579 -19.55932617 4.34057617 C-21.55829746 4.68002413 -23.55808256 5.01479233 -25.55932617 5.34057617 C-25.55932617 4.68057617 -25.55932617 4.02057617 -25.55932617 3.34057617 C-16.94975936 0.41250056 -9.0453401 -0.07411746 0 0 Z " fill="#F8821E" transform="translate(331.559326171875,244.659423828125)"/>
<path d="M0 0 C0 3.94433218 -1.4492448 5.47414386 -3.625 8.75 C-11.15773904 20.5138232 -15.68670171 33.28850464 -16.65625 47.25 C-16.7696875 47.8275 -16.883125 48.405 -17 49 C-17.99 49.495 -17.99 49.495 -19 50 C-19.21434347 43.62643378 -18.66274833 38.29552868 -16.875 32.1875 C-16.53831299 31.01574219 -16.53831299 31.01574219 -16.19482422 29.8203125 C-13.0215447 19.22962843 -7.93949287 7.93949287 0 0 Z " fill="#FBA13C" transform="translate(265,276)"/>
<path d="M0 0 C0 0.66 0 1.32 0 2 C-1.5778125 2.2165625 -1.5778125 2.2165625 -3.1875 2.4375 C-6.1580783 2.87578204 -9.06146773 3.39722415 -12 4 C-13.99897128 4.33944795 -15.99875639 4.67421616 -18 5 C-18 4.34 -18 3.68 -18 3 C-11.88595404 1.14256832 -6.41481258 -0.42765417 0 0 Z " fill="#FCA845" transform="translate(324,245)"/>
<path d="M0 0 C0.66 0.33 1.32 0.66 2 1 C-1.3 4.3 -4.6 7.6 -8 11 C-8.66 10.34 -9.32 9.68 -10 9 C-8.89902432 7.87187697 -7.79408444 6.74762189 -6.6875 5.625 C-6.07261719 4.99851562 -5.45773437 4.37203125 -4.82421875 3.7265625 C-3 2 -3 2 0 0 Z " fill="#F87943" transform="translate(433,418)"/>
<path d="M0 0 C0.66 0.33 1.32 0.66 2 1 C-0.97 3.64 -3.94 6.28 -7 9 C-7 6 -7 6 -5.625 4.3125 C-4 3 -4 3 -2 3 C-2 2.34 -2 1.68 -2 1 C-1.34 0.67 -0.68 0.34 0 0 Z " fill="#E64084" transform="translate(750,755)"/>
<path d="M0 0 C1 2 1 2 0.22265625 4.3828125 C-0.16019531 5.28773438 -0.54304687 6.19265625 -0.9375 7.125 C-1.31777344 8.03507812 -1.69804687 8.94515625 -2.08984375 9.8828125 C-2.39019531 10.58148438 -2.69054687 11.28015625 -3 12 C-3.33 12 -3.66 12 -4 12 C-3.28571429 3.42857143 -3.28571429 3.42857143 0 0 Z " fill="#F89933" transform="translate(255,292)"/>
<path d="M0 0 C-1.50223584 4.20626034 -4.28550034 5.73900021 -8 8 C-6.48291727 4.46014029 -4.24676932 0 0 0 Z " fill="#FBA13B" transform="translate(275,267)"/>
<path d="M0 0 C-0.33 0.66 -0.66 1.32 -1 2 C-3.28515625 2.4140625 -3.28515625 2.4140625 -6.0625 2.625 C-6.98160156 2.69976562 -7.90070313 2.77453125 -8.84765625 2.8515625 C-9.55792969 2.90054687 -10.26820313 2.94953125 -11 3 C-7.65817252 -1.0165182 -4.96805907 -0.24433077 0 0 Z " fill="#F88745" transform="translate(441,342)"/>
</svg>
